<mxfile host="app.diagrams.net" modified="2020-11-09T13:24:55.317Z" agent="5.0 (Windows NT 10.0; Win64; x64) AppleWebKit/537.36 (KHTML, like Gecko) Chrome/83.0.4103.61 Safari/537.36" etag="B_QYMZZYQ0ocCiCf4xv3" version="13.8.5" type="github">
  <diagram id="kgpKYQtTHZ0yAKxKKP6v" name="Page-1">
    <mxGraphModel dx="1422" dy="745" grid="1" gridSize="10" guides="1" tooltips="1" connect="1" arrows="1" fold="1" page="1" pageScale="1" pageWidth="850" pageHeight="1100" math="0" shadow="0">
      <root>
        <mxCell id="0" />
        <mxCell id="1" parent="0" />
        <mxCell id="u2GplST8s771oeebHamb-19" value="HumanMaskMgr" style="swimlane;fontStyle=1;align=center;verticalAlign=top;childLayout=stackLayout;horizontal=1;startSize=26;horizontalStack=0;resizeParent=1;resizeParentMax=0;resizeLast=0;collapsible=1;marginBottom=0;fillColor=#B9E0A5;" vertex="1" parent="1">
          <mxGeometry x="542" y="120" width="478" height="190" as="geometry" />
        </mxCell>
        <mxCell id="u2GplST8s771oeebHamb-20" value="+ stream_mask_enable_set_: std::set&lt;std::string&gt;&#xa;+ #define LOCAL_CAMERA &quot;local_camera&quot;&#xa;- mask_redraw_delegates_ : std::map&lt;std::string, std::vectore&gt;" style="text;strokeColor=none;fillColor=none;align=left;verticalAlign=top;spacingLeft=4;spacingRight=4;overflow=hidden;rotatable=0;points=[[0,0.5],[1,0.5]];portConstraint=eastwest;" vertex="1" parent="u2GplST8s771oeebHamb-19">
          <mxGeometry y="26" width="478" height="56" as="geometry" />
        </mxCell>
        <mxCell id="u2GplST8s771oeebHamb-21" value="" style="line;strokeWidth=1;fillColor=none;align=left;verticalAlign=middle;spacingTop=-1;spacingLeft=3;spacingRight=3;rotatable=0;labelPosition=right;points=[];portConstraint=eastwest;" vertex="1" parent="u2GplST8s771oeebHamb-19">
          <mxGeometry y="82" width="478" height="8" as="geometry" />
        </mxCell>
        <mxCell id="u2GplST8s771oeebHamb-22" value="+ EnableHumanMask(char* stream_id): bool&#xa;+ DisableHumanMask(char* stream_id):bool&#xa;delegate-&gt;getmasksize()&#xa;&#xa;+ SetMaskRedrawDelegate(char* stream_id, HumanMaskDelegate delegate): bool&#xa;+ DoMaskRedraw(char *stream_id, char* mask_data, int width, int height)&#xa;" style="text;strokeColor=none;fillColor=none;align=left;verticalAlign=top;spacingLeft=4;spacingRight=4;overflow=hidden;rotatable=0;points=[[0,0.5],[1,0.5]];portConstraint=eastwest;fontStyle=0" vertex="1" parent="u2GplST8s771oeebHamb-19">
          <mxGeometry y="90" width="478" height="100" as="geometry" />
        </mxCell>
        <mxCell id="u2GplST8s771oeebHamb-31" value="XNNLocalControl" style="swimlane;fontStyle=1;align=center;verticalAlign=top;childLayout=stackLayout;horizontal=1;startSize=26;horizontalStack=0;resizeParent=1;resizeParentMax=0;resizeLast=0;collapsible=1;marginBottom=0;" vertex="1" parent="1">
          <mxGeometry x="590" y="510" width="260" height="86" as="geometry" />
        </mxCell>
        <mxCell id="u2GplST8s771oeebHamb-32" value="+ controls_: std::map&lt;XNNBiz, bool&gt;" style="text;strokeColor=none;fillColor=none;align=left;verticalAlign=top;spacingLeft=4;spacingRight=4;overflow=hidden;rotatable=0;points=[[0,0.5],[1,0.5]];portConstraint=eastwest;" vertex="1" parent="u2GplST8s771oeebHamb-31">
          <mxGeometry y="26" width="260" height="26" as="geometry" />
        </mxCell>
        <mxCell id="u2GplST8s771oeebHamb-33" value="" style="line;strokeWidth=1;fillColor=none;align=left;verticalAlign=middle;spacingTop=-1;spacingLeft=3;spacingRight=3;rotatable=0;labelPosition=right;points=[];portConstraint=eastwest;" vertex="1" parent="u2GplST8s771oeebHamb-31">
          <mxGeometry y="52" width="260" height="8" as="geometry" />
        </mxCell>
        <mxCell id="u2GplST8s771oeebHamb-34" value="+ SetEnable(XNNBiz biz, bool enable): void" style="text;strokeColor=none;fillColor=none;align=left;verticalAlign=top;spacingLeft=4;spacingRight=4;overflow=hidden;rotatable=0;points=[[0,0.5],[1,0.5]];portConstraint=eastwest;" vertex="1" parent="u2GplST8s771oeebHamb-31">
          <mxGeometry y="60" width="260" height="26" as="geometry" />
        </mxCell>
        <mxCell id="u2GplST8s771oeebHamb-36" style="edgeStyle=orthogonalEdgeStyle;rounded=0;orthogonalLoop=1;jettySize=auto;html=1;entryX=0;entryY=0.5;entryDx=0;entryDy=0;" edge="1" parent="1" source="u2GplST8s771oeebHamb-35" target="u2GplST8s771oeebHamb-32">
          <mxGeometry relative="1" as="geometry" />
        </mxCell>
        <mxCell id="u2GplST8s771oeebHamb-35" value="video_device&lt;br&gt;&lt;b&gt;EnableShareScreenPicInPic&lt;/b&gt;" style="html=1;" vertex="1" parent="1">
          <mxGeometry x="240" y="522" width="220" height="54" as="geometry" />
        </mxCell>
        <mxCell id="u2GplST8s771oeebHamb-44" style="edgeStyle=orthogonalEdgeStyle;rounded=0;orthogonalLoop=1;jettySize=auto;html=1;endArrow=classicThin;endFill=1;exitX=0.5;exitY=0;exitDx=0;exitDy=0;entryX=0.395;entryY=1.038;entryDx=0;entryDy=0;entryPerimeter=0;" edge="1" parent="1" source="u2GplST8s771oeebHamb-46" target="u2GplST8s771oeebHamb-22">
          <mxGeometry relative="1" as="geometry">
            <mxPoint x="620" y="410" as="sourcePoint" />
            <mxPoint x="610" y="360" as="targetPoint" />
          </mxGeometry>
        </mxCell>
        <mxCell id="u2GplST8s771oeebHamb-53" style="edgeStyle=orthogonalEdgeStyle;rounded=0;orthogonalLoop=1;jettySize=auto;html=1;endArrow=classicThin;endFill=1;" edge="1" parent="1" source="u2GplST8s771oeebHamb-38" target="u2GplST8s771oeebHamb-45">
          <mxGeometry relative="1" as="geometry">
            <Array as="points">
              <mxPoint x="1078" y="480" />
              <mxPoint x="730" y="480" />
            </Array>
          </mxGeometry>
        </mxCell>
        <mxCell id="u2GplST8s771oeebHamb-38" value="HummanSegmendMaskPreprocBiz" style="swimlane;fontStyle=1;align=center;verticalAlign=top;childLayout=stackLayout;horizontal=1;startSize=26;horizontalStack=0;resizeParent=1;resizeParentMax=0;resizeLast=0;collapsible=1;marginBottom=0;fillColor=#B9E0A5;" vertex="1" parent="1">
          <mxGeometry x="960" y="510" width="235" height="86" as="geometry" />
        </mxCell>
        <mxCell id="u2GplST8s771oeebHamb-39" value="+ field: type" style="text;strokeColor=none;fillColor=none;align=left;verticalAlign=top;spacingLeft=4;spacingRight=4;overflow=hidden;rotatable=0;points=[[0,0.5],[1,0.5]];portConstraint=eastwest;" vertex="1" parent="u2GplST8s771oeebHamb-38">
          <mxGeometry y="26" width="235" height="26" as="geometry" />
        </mxCell>
        <mxCell id="u2GplST8s771oeebHamb-40" value="" style="line;strokeWidth=1;fillColor=none;align=left;verticalAlign=middle;spacingTop=-1;spacingLeft=3;spacingRight=3;rotatable=0;labelPosition=right;points=[];portConstraint=eastwest;" vertex="1" parent="u2GplST8s771oeebHamb-38">
          <mxGeometry y="52" width="235" height="8" as="geometry" />
        </mxCell>
        <mxCell id="u2GplST8s771oeebHamb-41" value="+ method(type): type" style="text;strokeColor=none;fillColor=none;align=left;verticalAlign=top;spacingLeft=4;spacingRight=4;overflow=hidden;rotatable=0;points=[[0,0.5],[1,0.5]];portConstraint=eastwest;" vertex="1" parent="u2GplST8s771oeebHamb-38">
          <mxGeometry y="60" width="235" height="26" as="geometry" />
        </mxCell>
        <mxCell id="u2GplST8s771oeebHamb-42" style="edgeStyle=orthogonalEdgeStyle;rounded=0;orthogonalLoop=1;jettySize=auto;html=1;exitX=1;exitY=0.5;exitDx=0;exitDy=0;entryX=0;entryY=0.5;entryDx=0;entryDy=0;" edge="1" parent="1" source="u2GplST8s771oeebHamb-32" target="u2GplST8s771oeebHamb-39">
          <mxGeometry relative="1" as="geometry" />
        </mxCell>
        <mxCell id="u2GplST8s771oeebHamb-45" value="CameraPreprocessListener::OnCameraPreprocess" style="html=1;" vertex="1" parent="1">
          <mxGeometry x="559" y="390" width="340" height="50" as="geometry" />
        </mxCell>
        <mxCell id="u2GplST8s771oeebHamb-46" value="&lt;span style=&quot;text-align: left&quot;&gt;发送端LOCAL_CAMERA&amp;nbsp;&lt;/span&gt;" style="text;html=1;strokeColor=none;fillColor=none;align=center;verticalAlign=middle;whiteSpace=wrap;rounded=0;" vertex="1" parent="1">
          <mxGeometry x="709" y="330" width="40" height="20" as="geometry" />
        </mxCell>
        <mxCell id="u2GplST8s771oeebHamb-47" style="edgeStyle=orthogonalEdgeStyle;rounded=0;orthogonalLoop=1;jettySize=auto;html=1;entryX=0.482;entryY=0.986;entryDx=0;entryDy=0;entryPerimeter=0;endArrow=none;endFill=0;exitX=0.5;exitY=0;exitDx=0;exitDy=0;" edge="1" parent="1" source="u2GplST8s771oeebHamb-45" target="u2GplST8s771oeebHamb-46">
          <mxGeometry relative="1" as="geometry">
            <mxPoint x="730" y="390" as="sourcePoint" />
            <mxPoint x="737.98" y="257.02" as="targetPoint" />
          </mxGeometry>
        </mxCell>
        <mxCell id="u2GplST8s771oeebHamb-52" style="edgeStyle=orthogonalEdgeStyle;rounded=0;orthogonalLoop=1;jettySize=auto;html=1;endArrow=classicThin;endFill=1;" edge="1" parent="1" source="u2GplST8s771oeebHamb-77" target="u2GplST8s771oeebHamb-22">
          <mxGeometry relative="1" as="geometry" />
        </mxCell>
        <mxCell id="u2GplST8s771oeebHamb-48" value="HumamMaskListener" style="swimlane;fontStyle=1;align=center;verticalAlign=top;childLayout=stackLayout;horizontal=1;startSize=26;horizontalStack=0;resizeParent=1;resizeParentMax=0;resizeLast=0;collapsible=1;marginBottom=0;fillColor=#B9E0A5;" vertex="1" parent="1">
          <mxGeometry x="990" y="354" width="250" height="86" as="geometry" />
        </mxCell>
        <mxCell id="u2GplST8s771oeebHamb-49" value="+ field: type" style="text;strokeColor=none;fillColor=none;align=left;verticalAlign=top;spacingLeft=4;spacingRight=4;overflow=hidden;rotatable=0;points=[[0,0.5],[1,0.5]];portConstraint=eastwest;" vertex="1" parent="u2GplST8s771oeebHamb-48">
          <mxGeometry y="26" width="250" height="26" as="geometry" />
        </mxCell>
        <mxCell id="u2GplST8s771oeebHamb-50" value="" style="line;strokeWidth=1;fillColor=none;align=left;verticalAlign=middle;spacingTop=-1;spacingLeft=3;spacingRight=3;rotatable=0;labelPosition=right;points=[];portConstraint=eastwest;" vertex="1" parent="u2GplST8s771oeebHamb-48">
          <mxGeometry y="52" width="250" height="8" as="geometry" />
        </mxCell>
        <mxCell id="u2GplST8s771oeebHamb-51" value="OnVideoFrame(xcast::xcast_data&amp; data)" style="text;strokeColor=none;fillColor=none;align=left;verticalAlign=top;spacingLeft=4;spacingRight=4;overflow=hidden;rotatable=0;points=[[0,0.5],[1,0.5]];portConstraint=eastwest;" vertex="1" parent="u2GplST8s771oeebHamb-48">
          <mxGeometry y="60" width="250" height="26" as="geometry" />
        </mxCell>
        <mxCell id="u2GplST8s771oeebHamb-55" value="VideoItemViewModel" style="swimlane;fontStyle=1;align=center;verticalAlign=top;childLayout=stackLayout;horizontal=1;startSize=26;horizontalStack=0;resizeParent=1;resizeParentMax=0;resizeLast=0;collapsible=1;marginBottom=0;" vertex="1" parent="1">
          <mxGeometry x="680" y="730" width="370" height="160" as="geometry">
            <mxRectangle x="680" y="730" width="150" height="26" as="alternateBounds" />
          </mxGeometry>
        </mxCell>
        <mxCell id="u2GplST8s771oeebHamb-56" value="+ field: type" style="text;strokeColor=none;fillColor=none;align=left;verticalAlign=top;spacingLeft=4;spacingRight=4;overflow=hidden;rotatable=0;points=[[0,0.5],[1,0.5]];portConstraint=eastwest;" vertex="1" parent="u2GplST8s771oeebHamb-55">
          <mxGeometry y="26" width="370" height="26" as="geometry" />
        </mxCell>
        <mxCell id="u2GplST8s771oeebHamb-57" value="" style="line;strokeWidth=1;fillColor=none;align=left;verticalAlign=middle;spacingTop=-1;spacingLeft=3;spacingRight=3;rotatable=0;labelPosition=right;points=[];portConstraint=eastwest;" vertex="1" parent="u2GplST8s771oeebHamb-55">
          <mxGeometry y="52" width="370" height="8" as="geometry" />
        </mxCell>
        <mxCell id="u2GplST8s771oeebHamb-58" value="+ UpdateUserInfoIfNeeded(type): type&#xa;+ VideoItemViewModel::SetUserInfoProp&#xa;prop：&#xa;kEnableSubStream&#xa;kSetSubStreamId&#xa;kSetSubStreamPos" style="text;strokeColor=none;fillColor=none;align=left;verticalAlign=top;spacingLeft=4;spacingRight=4;overflow=hidden;rotatable=0;points=[[0,0.5],[1,0.5]];portConstraint=eastwest;" vertex="1" parent="u2GplST8s771oeebHamb-55">
          <mxGeometry y="60" width="370" height="100" as="geometry" />
        </mxCell>
        <mxCell id="u2GplST8s771oeebHamb-59" value="VideoItemView" style="swimlane;fontStyle=1;align=center;verticalAlign=top;childLayout=stackLayout;horizontal=1;startSize=26;horizontalStack=0;resizeParent=1;resizeParentMax=0;resizeLast=0;collapsible=1;marginBottom=0;" vertex="1" parent="1">
          <mxGeometry x="450" y="716" width="160" height="114" as="geometry" />
        </mxCell>
        <mxCell id="u2GplST8s771oeebHamb-60" value="stream_id_&#xa;sub_stream_id_&#xa;sub_view_pos_" style="text;strokeColor=none;fillColor=none;align=left;verticalAlign=top;spacingLeft=4;spacingRight=4;overflow=hidden;rotatable=0;points=[[0,0.5],[1,0.5]];portConstraint=eastwest;" vertex="1" parent="u2GplST8s771oeebHamb-59">
          <mxGeometry y="26" width="160" height="54" as="geometry" />
        </mxCell>
        <mxCell id="u2GplST8s771oeebHamb-61" value="" style="line;strokeWidth=1;fillColor=none;align=left;verticalAlign=middle;spacingTop=-1;spacingLeft=3;spacingRight=3;rotatable=0;labelPosition=right;points=[];portConstraint=eastwest;" vertex="1" parent="u2GplST8s771oeebHamb-59">
          <mxGeometry y="80" width="160" height="8" as="geometry" />
        </mxCell>
        <mxCell id="u2GplST8s771oeebHamb-62" value="+ method(type): type" style="text;strokeColor=none;fillColor=none;align=left;verticalAlign=top;spacingLeft=4;spacingRight=4;overflow=hidden;rotatable=0;points=[[0,0.5],[1,0.5]];portConstraint=eastwest;" vertex="1" parent="u2GplST8s771oeebHamb-59">
          <mxGeometry y="88" width="160" height="26" as="geometry" />
        </mxCell>
        <mxCell id="u2GplST8s771oeebHamb-63" style="edgeStyle=orthogonalEdgeStyle;rounded=0;orthogonalLoop=1;jettySize=auto;html=1;endArrow=none;endFill=0;" edge="1" parent="1" source="u2GplST8s771oeebHamb-60" target="u2GplST8s771oeebHamb-56">
          <mxGeometry relative="1" as="geometry" />
        </mxCell>
        <mxCell id="u2GplST8s771oeebHamb-64" value="Render" style="swimlane;fontStyle=1;align=center;verticalAlign=top;childLayout=stackLayout;horizontal=1;startSize=26;horizontalStack=0;resizeParent=1;resizeParentMax=0;resizeLast=0;collapsible=1;marginBottom=0;" vertex="1" parent="1">
          <mxGeometry x="220" y="730" width="160" height="86" as="geometry" />
        </mxCell>
        <mxCell id="u2GplST8s771oeebHamb-65" value="+ field: type" style="text;strokeColor=none;fillColor=none;align=left;verticalAlign=top;spacingLeft=4;spacingRight=4;overflow=hidden;rotatable=0;points=[[0,0.5],[1,0.5]];portConstraint=eastwest;" vertex="1" parent="u2GplST8s771oeebHamb-64">
          <mxGeometry y="26" width="160" height="26" as="geometry" />
        </mxCell>
        <mxCell id="u2GplST8s771oeebHamb-66" value="" style="line;strokeWidth=1;fillColor=none;align=left;verticalAlign=middle;spacingTop=-1;spacingLeft=3;spacingRight=3;rotatable=0;labelPosition=right;points=[];portConstraint=eastwest;" vertex="1" parent="u2GplST8s771oeebHamb-64">
          <mxGeometry y="52" width="160" height="8" as="geometry" />
        </mxCell>
        <mxCell id="u2GplST8s771oeebHamb-67" value="+ method(type): type" style="text;strokeColor=none;fillColor=none;align=left;verticalAlign=top;spacingLeft=4;spacingRight=4;overflow=hidden;rotatable=0;points=[[0,0.5],[1,0.5]];portConstraint=eastwest;" vertex="1" parent="u2GplST8s771oeebHamb-64">
          <mxGeometry y="60" width="160" height="26" as="geometry" />
        </mxCell>
        <mxCell id="u2GplST8s771oeebHamb-68" style="edgeStyle=orthogonalEdgeStyle;rounded=0;orthogonalLoop=1;jettySize=auto;html=1;entryX=0;entryY=0.5;entryDx=0;entryDy=0;endArrow=none;endFill=0;" edge="1" parent="1" source="u2GplST8s771oeebHamb-65" target="u2GplST8s771oeebHamb-60">
          <mxGeometry relative="1" as="geometry" />
        </mxCell>
        <mxCell id="u2GplST8s771oeebHamb-71" value="接收端" style="text;html=1;strokeColor=none;fillColor=none;align=center;verticalAlign=middle;whiteSpace=wrap;rounded=0;fontSize=20;" vertex="1" parent="1">
          <mxGeometry x="470" y="660" width="100" height="30" as="geometry" />
        </mxCell>
        <mxCell id="u2GplST8s771oeebHamb-72" value="humanmask获取" style="text;html=1;strokeColor=none;fillColor=none;align=center;verticalAlign=middle;whiteSpace=wrap;rounded=0;fontSize=20;" vertex="1" parent="1">
          <mxGeometry x="310" y="395" width="130" height="40" as="geometry" />
        </mxCell>
        <mxCell id="u2GplST8s771oeebHamb-76" style="edgeStyle=orthogonalEdgeStyle;rounded=0;orthogonalLoop=1;jettySize=auto;html=1;entryX=0.002;entryY=0.893;entryDx=0;entryDy=0;entryPerimeter=0;endArrow=none;endFill=0;fontSize=20;" edge="1" parent="1" source="u2GplST8s771oeebHamb-75" target="u2GplST8s771oeebHamb-20">
          <mxGeometry relative="1" as="geometry" />
        </mxCell>
        <mxCell id="u2GplST8s771oeebHamb-75" value="&lt;p style=&quot;margin: 0px ; margin-top: 4px ; text-align: center&quot;&gt;&lt;i&gt;&amp;lt;&amp;lt;Interface&amp;gt;&amp;gt;&lt;/i&gt;&lt;br&gt;&lt;b&gt;HumanMaskDelegate&lt;/b&gt;&lt;/p&gt;&lt;hr size=&quot;1&quot;&gt;&lt;p style=&quot;margin: 0px ; margin-left: 4px&quot;&gt;+ field1: Type&lt;br&gt;+ field2: Type&lt;/p&gt;&lt;hr size=&quot;1&quot;&gt;&lt;p style=&quot;margin: 0px ; margin-left: 4px&quot;&gt;+ OnMaskRedraw(char *stream_id,char *mask_data, int width, int height)&lt;br&gt;+ GetMaskSize(int &amp;amp;width, int &amp;amp;height)&lt;/p&gt;" style="verticalAlign=top;align=left;overflow=fill;fontSize=12;fontFamily=Helvetica;html=1;fillColor=#B9E0A5;" vertex="1" parent="1">
          <mxGeometry x="40" y="130" width="400" height="130" as="geometry" />
        </mxCell>
        <mxCell id="u2GplST8s771oeebHamb-77" value="接收端&lt;br&gt;" style="text;html=1;strokeColor=none;fillColor=none;align=center;verticalAlign=middle;whiteSpace=wrap;rounded=0;fontSize=20;" vertex="1" parent="1">
          <mxGeometry x="1100" y="270" width="80" height="20" as="geometry" />
        </mxCell>
        <mxCell id="u2GplST8s771oeebHamb-78" style="edgeStyle=orthogonalEdgeStyle;rounded=0;orthogonalLoop=1;jettySize=auto;html=1;endArrow=none;endFill=0;" edge="1" parent="1" source="u2GplST8s771oeebHamb-48" target="u2GplST8s771oeebHamb-77">
          <mxGeometry relative="1" as="geometry">
            <mxPoint x="1115" y="354" as="sourcePoint" />
            <mxPoint x="1020" y="245" as="targetPoint" />
          </mxGeometry>
        </mxCell>
      </root>
    </mxGraphModel>
  </diagram>
</mxfile>
